<svg version="1.1" id="Layer_1" xmlns="http://www.w3.org/2000/svg" xmlns:xlink="http://www.w3.org/1999/xlink" x="0px" y="0px"
	 width="100%" viewBox="0 0 1123 794" enable-background="new 0 0 1123 794" xml:space="preserve">
<path fill="#FFFFFF" opacity="1.000000" stroke="none" 
	d="
M697.000000,795.000000 
	C464.696869,795.000000 232.893753,795.000000 1.045310,795.000000 
	C1.045310,530.398010 1.045310,265.796051 1.045310,1.097038 
	C375.219818,1.097038 749.439697,1.097038 1123.829834,1.097038 
	C1123.829834,265.666565 1123.829834,530.333252 1123.829834,795.000000 
	C981.795959,795.000000 839.648010,795.000000 697.000000,795.000000 
M155.188553,405.302643 
	C149.013275,398.761383 141.568710,394.591827 132.511703,394.046997 
	C114.951111,392.990692 100.375870,403.996094 95.324402,421.834381 
	C90.369110,439.333038 98.219467,458.987885 113.382759,467.046814 
	C137.468994,479.848175 165.717972,462.005493 165.851822,433.774200 
	C165.978195,407.119751 165.850037,380.464142 165.876556,353.809113 
	C165.897247,333.003479 171.770279,315.292664 192.154388,305.329926 
	C154.871521,288.982056 104.468628,297.481842 74.105606,336.800720 
	C46.969677,371.940613 49.242741,418.450134 65.847839,444.728485 
	C62.657303,425.556549 66.898643,408.329437 78.378365,392.799530 
	C95.913177,369.078278 129.735779,360.256714 156.270920,372.705933 
	C157.850876,373.447205 160.076797,375.161621 160.112701,376.474854 
	C160.419067,387.679138 160.288147,398.895386 160.288147,411.133209 
	C158.217575,408.775940 156.930344,407.310486 155.188553,405.302643 
M253.107254,412.607697 
	C259.704590,370.733673 237.084259,332.407440 213.675232,318.286835 
	C213.675232,322.938507 213.675232,327.396484 213.675232,331.836456 
	C211.557129,332.170258 209.761185,332.510834 207.950394,332.727264 
	C203.545746,333.253723 199.844727,334.999207 198.021622,339.239471 
	C194.940567,346.405457 194.877365,353.951660 195.137817,362.039246 
	C201.145645,362.039246 206.553192,362.039246 211.852020,362.039246 
	C211.852020,371.114868 211.852020,379.706482 211.852020,388.727478 
	C206.086960,388.727478 200.656372,388.727478 194.994232,388.727478 
	C194.994232,403.320007 194.994583,417.473969 194.994171,431.627899 
	C194.993286,462.287598 176.313690,487.154785 146.862274,495.713806 
	C145.895844,495.994690 144.948639,496.341644 143.135849,496.941101 
	C186.349152,504.063568 243.248581,473.806976 253.107254,412.607697 
M539.846130,433.499969 
	C539.846130,444.252533 539.846130,455.005096 539.846130,465.719177 
	C545.252380,465.719177 549.994202,465.719177 555.007446,465.719177 
	C555.007446,463.791626 555.007507,462.151398 555.007507,460.511139 
	C555.007690,440.351410 554.949951,420.191406 555.031860,400.032013 
	C555.074219,389.611938 560.715210,381.618988 570.162964,378.122162 
	C580.103394,374.443024 592.762512,376.949249 598.889099,383.927399 
	C603.664856,389.366943 604.969604,396.002167 604.981445,402.979065 
	C605.014343,422.305695 604.993347,441.632446 604.993652,460.959137 
	C604.993652,462.557434 604.993652,464.155701 604.993652,465.687988 
	C610.332275,465.687988 615.063843,465.687988 619.948669,465.687988 
	C619.948669,442.560272 620.335022,419.744751 619.818054,396.949738 
	C619.449951,380.716888 609.387207,368.211090 594.217041,364.551819 
	C576.541565,360.288239 561.234680,364.519928 549.424316,379.533264 
	C542.836121,368.852753 533.179016,363.893005 521.117371,363.149506 
	C509.335480,362.423218 499.023743,365.976868 489.555115,374.913483 
	C489.555115,370.562775 489.555115,367.501160 489.555115,364.481201 
	C484.433136,364.481201 479.840698,364.481201 475.049988,364.481201 
	C475.049988,398.362152 475.049988,431.944183 475.049988,465.729706 
	C479.967163,465.729706 484.689209,465.729706 489.813416,465.729706 
	C489.813416,462.666077 489.806030,459.867523 489.814606,457.069061 
	C489.873871,437.744507 489.560242,418.408966 490.126007,399.099182 
	C490.524658,385.493866 499.730743,377.292297 513.866577,376.478729 
	C527.433777,375.697937 537.645630,383.165588 539.010376,396.589813 
	C540.217651,408.465454 539.637268,420.522797 539.846130,433.499969 
M366.343781,466.006714 
	C367.940948,465.934418 369.538116,465.862091 371.175079,465.787994 
	C371.175079,416.686218 371.175079,367.964264 371.175079,319.265045 
	C366.121124,319.265045 361.358246,319.265045 356.183380,319.265045 
	C356.183380,328.655273 356.183380,337.777527 356.183380,346.899780 
	C356.183380,356.070923 356.183380,365.242065 356.183380,375.196991 
	C333.574402,353.577484 301.191101,361.177124 293.621399,389.253540 
	C288.820862,407.059143 289.018829,425.232300 294.131287,443.000885 
	C298.735016,459.001251 310.004395,466.868591 326.696320,467.173157 
	C337.957306,467.378601 347.984924,464.617126 356.226196,454.683105 
	C356.440643,459.213043 356.592896,462.429688 356.762238,466.006622 
	C359.810669,466.006622 362.609863,466.006622 366.343781,466.006714 
M989.052429,397.663025 
	C988.695129,406.949249 987.506165,416.295593 988.172241,425.507843 
	C989.215698,439.941132 994.310669,452.835754 1007.301575,461.029114 
	C1025.868286,472.739044 1054.456787,468.171600 1068.989502,451.151276 
	C1065.651123,448.244537 1062.312988,445.338043 1058.888672,442.356415 
	C1046.516846,454.409363 1032.425293,457.643982 1017.366333,450.293762 
	C1005.076233,444.294983 1002.911560,432.213989 1002.556641,419.189514 
	C1025.480103,419.189514 1048.045776,419.189514 1070.838989,419.189514 
	C1071.406372,408.294373 1070.825439,398.058960 1066.957520,388.298492 
	C1060.775513,372.698975 1049.292847,364.154388 1032.434204,363.184723 
	C1015.450134,362.207825 1002.150208,368.422424 994.004272,383.776520 
	C991.850159,387.836639 990.768066,392.465485 989.052429,397.663025 
M423.465729,363.000366 
	C403.298828,363.809570 389.759064,373.034424 384.661377,390.596832 
	C379.885254,407.051270 379.863495,423.865570 384.842255,440.284058 
	C390.362091,458.486816 405.815094,468.048218 426.580536,467.092682 
	C444.024750,466.289978 458.976318,454.393616 461.983490,436.798523 
	C463.948639,425.300201 464.631348,413.228912 463.539581,401.635498 
	C461.264343,377.474335 447.569122,364.749146 423.465729,363.000366 
M777.610168,461.936676 
	C778.502197,462.377655 779.384888,462.838715 780.287537,463.256744 
	C802.858032,473.709320 833.181702,463.762299 838.403076,434.982452 
	C840.719238,422.215698 840.984375,409.452301 838.653564,396.747742 
	C834.818481,375.844635 819.828247,363.244965 799.108887,362.994690 
	C778.566284,362.746521 763.104675,375.296387 758.897827,395.981079 
	C756.317200,408.669708 756.453003,421.449982 758.830139,434.182678 
	C761.010254,445.860077 766.626282,455.288361 777.610168,461.936676 
M706.310547,384.239075 
	C697.944397,368.793121 684.572388,362.204651 667.499084,363.231354 
	C650.712952,364.240784 638.114868,372.343750 632.685974,388.568634 
	C626.674561,406.534332 626.720703,425.035309 633.083923,442.961792 
	C638.665283,458.685638 653.037598,467.279572 671.246765,467.146393 
	C687.962280,467.024139 702.897217,457.711395 707.740784,442.638367 
	C713.901855,423.465607 713.747986,404.014160 706.310547,384.239075 
M951.160950,453.662476 
	C937.704041,451.766876 929.579773,443.819458 926.534668,430.923126 
	C924.022644,420.284637 923.973206,409.400482 926.708862,398.768829 
	C932.441956,376.488312 957.576782,369.015137 974.695496,384.338043 
	C975.903076,385.418945 977.077698,386.536652 978.429993,387.787384 
	C981.883118,384.497253 985.081787,381.449524 988.254517,378.426575 
	C969.316284,355.198059 931.021423,358.630066 916.814880,384.442413 
	C910.207886,396.446899 909.150818,409.420776 910.127625,422.686432 
	C912.310852,452.337372 931.194214,468.971558 960.282776,466.999725 
	C971.838989,466.216370 980.936523,460.872559 988.354553,451.863312 
	C984.814270,448.505432 981.611206,445.467407 978.082764,442.120758 
	C971.101074,450.503418 962.650513,454.740143 951.160950,453.662476 
M723.184937,352.505798 
	C723.184937,356.590881 723.184937,360.675995 723.184937,365.276367 
	C718.448608,365.276367 714.397888,365.276367 710.487427,365.276367 
	C710.487427,369.242950 710.487427,372.659851 710.487427,376.460938 
	C714.737122,376.460938 718.677673,376.460938 723.123169,376.460938 
	C723.123169,406.404175 723.123169,435.952148 723.123169,465.748322 
	C728.354431,465.748322 733.074829,465.748322 738.308838,465.748322 
	C738.308838,435.949280 738.308838,406.410583 738.308838,376.328094 
	C745.731812,376.328094 752.648560,376.328094 759.577698,376.328094 
	C759.577698,372.336426 759.577698,368.898132 759.577698,364.996338 
	C752.440613,364.996338 745.529236,364.996338 738.312439,364.996338 
	C738.312439,357.420410 737.856506,350.273376 738.436218,343.211304 
	C739.059387,335.619049 742.778931,332.457458 750.392090,331.699585 
	C753.458984,331.394318 756.551514,331.346985 759.493408,331.189697 
	C759.493408,326.740906 759.493408,322.829559 759.493408,318.817963 
	C754.710449,318.817963 750.224243,318.528992 745.787354,318.874084 
	C734.143250,319.779846 725.903442,327.179413 723.969177,338.601715 
	C723.253296,342.829132 723.420532,347.206085 723.184937,352.505798 
M849.527161,405.499756 
	C849.527161,425.584473 849.527161,445.669220 849.527161,465.738708 
	C854.892090,465.738708 859.651245,465.738708 864.815552,465.738708 
	C864.815552,463.843323 864.815491,462.216827 864.815552,460.590363 
	C864.815796,441.116852 864.726807,421.642822 864.845642,402.170044 
	C864.934509,387.615112 874.383789,377.289185 887.983826,376.506683 
	C895.230835,376.089752 901.276062,378.769012 905.441345,382.966614 
	C909.548035,379.448792 913.435425,376.118896 917.422180,372.703796 
	C909.850464,364.882965 900.755920,362.606415 890.740112,363.147247 
	C880.822937,363.682770 872.198547,367.340302 864.675049,375.645233 
	C864.675049,371.143707 864.675049,367.892853 864.675049,364.423889 
	C859.516418,364.423889 854.780701,364.423889 849.527466,364.423889 
	C849.527466,377.943787 849.527466,391.221741 849.527161,405.499756 
z"/>
<path fill="#56B6D5" opacity="1.000000" stroke="none" 
	d="
M155.415833,405.573853 
	C156.930344,407.310486 158.217575,408.775940 160.288147,411.133209 
	C160.288147,398.895386 160.419067,387.679138 160.112701,376.474854 
	C160.076797,375.161621 157.850876,373.447205 156.270920,372.705933 
	C129.735779,360.256714 95.913177,369.078278 78.378365,392.799530 
	C66.898643,408.329437 62.657303,425.556549 65.847839,444.728485 
	C49.242741,418.450134 46.969677,371.940613 74.105606,336.800720 
	C104.468628,297.481842 154.871521,288.982056 192.154388,305.329926 
	C171.770279,315.292664 165.897247,333.003479 165.876556,353.809113 
	C165.850037,380.464142 165.978195,407.119751 165.851822,433.774200 
	C165.717972,462.005493 137.468994,479.848175 113.382759,467.046814 
	C98.219467,458.987885 90.369110,439.333038 95.324402,421.834381 
	C100.375870,403.996094 114.951111,392.990692 132.511703,394.046997 
	C141.568710,394.591827 149.013275,398.761383 155.415833,405.573853 
z"/>
<path fill="#264159" opacity="1.000000" stroke="none" 
	d="
M253.059143,413.046448 
	C243.248581,473.806976 186.349152,504.063568 143.135849,496.941101 
	C144.948639,496.341644 145.895844,495.994690 146.862274,495.713806 
	C176.313690,487.154785 194.993286,462.287598 194.994171,431.627899 
	C194.994583,417.473969 194.994232,403.320007 194.994232,388.727478 
	C200.656372,388.727478 206.086960,388.727478 211.852020,388.727478 
	C211.852020,379.706482 211.852020,371.114868 211.852020,362.039246 
	C206.553192,362.039246 201.145645,362.039246 195.137817,362.039246 
	C194.877365,353.951660 194.940567,346.405457 198.021622,339.239471 
	C199.844727,334.999207 203.545746,333.253723 207.950394,332.727264 
	C209.761185,332.510834 211.557129,332.170258 213.675232,331.836456 
	C213.675232,327.396484 213.675232,322.938507 213.675232,318.286835 
	C237.084259,332.407440 259.704590,370.733673 253.059143,413.046448 
z"/>
<path fill="#27425A" opacity="1.000000" stroke="none" 
	d="
M539.846191,432.999939 
	C539.637268,420.522797 540.217651,408.465454 539.010376,396.589813 
	C537.645630,383.165588 527.433777,375.697937 513.866577,376.478729 
	C499.730743,377.292297 490.524658,385.493866 490.126007,399.099182 
	C489.560242,418.408966 489.873871,437.744507 489.814606,457.069061 
	C489.806030,459.867523 489.813416,462.666077 489.813416,465.729706 
	C484.689209,465.729706 479.967163,465.729706 475.049988,465.729706 
	C475.049988,431.944183 475.049988,398.362152 475.049988,364.481201 
	C479.840698,364.481201 484.433136,364.481201 489.555115,364.481201 
	C489.555115,367.501160 489.555115,370.562775 489.555115,374.913483 
	C499.023743,365.976868 509.335480,362.423218 521.117371,363.149506 
	C533.179016,363.893005 542.836121,368.852753 549.424316,379.533264 
	C561.234680,364.519928 576.541565,360.288239 594.217041,364.551819 
	C609.387207,368.211090 619.449951,380.716888 619.818054,396.949738 
	C620.335022,419.744751 619.948669,442.560272 619.948669,465.687988 
	C615.063843,465.687988 610.332275,465.687988 604.993652,465.687988 
	C604.993652,464.155701 604.993652,462.557434 604.993652,460.959137 
	C604.993347,441.632446 605.014343,422.305695 604.981445,402.979065 
	C604.969604,396.002167 603.664856,389.366943 598.889099,383.927399 
	C592.762512,376.949249 580.103394,374.443024 570.162964,378.122162 
	C560.715210,381.618988 555.074219,389.611938 555.031860,400.032013 
	C554.949951,420.191406 555.007690,440.351410 555.007507,460.511139 
	C555.007507,462.151398 555.007446,463.791626 555.007446,465.719177 
	C549.994202,465.719177 545.252380,465.719177 539.846130,465.719177 
	C539.846130,455.005096 539.846130,444.252533 539.846191,432.999939 
z"/>
<path fill="#27425A" opacity="1.000000" stroke="none" 
	d="
M365.876404,466.006653 
	C362.609863,466.006622 359.810669,466.006622 356.762238,466.006622 
	C356.592896,462.429688 356.440643,459.213043 356.226196,454.683105 
	C347.984924,464.617126 337.957306,467.378601 326.696320,467.173157 
	C310.004395,466.868591 298.735016,459.001251 294.131287,443.000885 
	C289.018829,425.232300 288.820862,407.059143 293.621399,389.253540 
	C301.191101,361.177124 333.574402,353.577484 356.183380,375.196991 
	C356.183380,365.242065 356.183380,356.070923 356.183380,346.899780 
	C356.183380,337.777527 356.183380,328.655273 356.183380,319.265045 
	C361.358246,319.265045 366.121124,319.265045 371.175079,319.265045 
	C371.175079,367.964264 371.175079,416.686218 371.175079,465.787994 
	C369.538116,465.862091 367.940948,465.934418 365.876404,466.006653 
M356.188629,411.546936 
	C355.767303,406.750549 355.670532,401.898682 354.862396,397.168396 
	C352.647858,384.205841 344.558197,377.064026 331.904724,376.474609 
	C319.646423,375.903625 310.907928,382.339935 307.813232,395.068115 
	C304.590973,408.320953 304.596466,421.809753 307.759003,435.050385 
	C310.939301,448.365356 319.448669,454.412628 332.674622,453.849976 
	C344.632050,453.341278 352.893585,445.852264 354.844177,432.895599 
	C355.853363,426.191925 355.775574,419.324585 356.188629,411.546936 
z"/>
<path fill="#27425A" opacity="1.000000" stroke="none" 
	d="
M989.123047,397.248108 
	C990.768066,392.465485 991.850159,387.836639 994.004272,383.776520 
	C1002.150208,368.422424 1015.450134,362.207825 1032.434204,363.184723 
	C1049.292847,364.154388 1060.775513,372.698975 1066.957520,388.298492 
	C1070.825439,398.058960 1071.406372,408.294373 1070.838989,419.189514 
	C1048.045776,419.189514 1025.480103,419.189514 1002.556641,419.189514 
	C1002.911560,432.213989 1005.076233,444.294983 1017.366333,450.293762 
	C1032.425293,457.643982 1046.516846,454.409363 1058.888672,442.356415 
	C1062.312988,445.338043 1065.651123,448.244537 1068.989502,451.151276 
	C1054.456787,468.171600 1025.868286,472.739044 1007.301575,461.029114 
	C994.310669,452.835754 989.215698,439.941132 988.172241,425.507843 
	C987.506165,416.295593 988.695129,406.949249 989.123047,397.248108 
M1003.845520,396.555298 
	C1003.371521,400.127777 1002.897583,403.700226 1002.384583,407.566650 
	C1020.481201,407.566650 1037.995361,407.566650 1055.836304,407.566650 
	C1055.385498,398.147156 1054.056396,389.427368 1047.004028,382.738220 
	C1034.151367,370.547638 1009.157532,374.476959 1003.845520,396.555298 
z"/>
<path fill="#27435A" opacity="1.000000" stroke="none" 
	d="
M423.933502,363.003540 
	C447.569122,364.749146 461.264343,377.474335 463.539581,401.635498 
	C464.631348,413.228912 463.948639,425.300201 461.983490,436.798523 
	C458.976318,454.393616 444.024750,466.289978 426.580536,467.092682 
	C405.815094,468.048218 390.362091,458.486816 384.842255,440.284058 
	C379.863495,423.865570 379.885254,407.051270 384.661377,390.596832 
	C389.759064,373.034424 403.298828,363.809570 423.933502,363.003540 
M416.335876,377.259705 
	C406.921936,380.019562 400.789124,386.093384 398.566101,395.654022 
	C395.550568,408.622833 395.360046,421.740875 398.622772,434.650055 
	C401.823029,447.312164 411.583557,454.296539 424.199707,453.855957 
	C436.431061,453.428833 446.020416,445.692352 447.841034,432.974640 
	C449.217804,423.357208 449.339752,413.440186 448.898682,403.707336 
	C447.977631,383.382660 433.964996,374.062225 416.335876,377.259705 
z"/>
<path fill="#28435A" opacity="1.000000" stroke="none" 
	d="
M777.300781,461.742920 
	C766.626282,455.288361 761.010254,445.860077 758.830139,434.182678 
	C756.453003,421.449982 756.317200,408.669708 758.897827,395.981079 
	C763.104675,375.296387 778.566284,362.746521 799.108887,362.994690 
	C819.828247,363.244965 834.818481,375.844635 838.653564,396.747742 
	C840.984375,409.452301 840.719238,422.215698 838.403076,434.982452 
	C833.181702,463.762299 802.858032,473.709320 780.287537,463.256744 
	C779.384888,462.838715 778.502197,462.377655 777.300781,461.742920 
M798.512512,376.459198 
	C783.613342,378.103546 776.550293,383.975708 773.581848,398.463867 
	C771.194641,410.115295 771.192505,421.967316 773.986267,433.600830 
	C777.168640,446.852936 786.856079,454.268097 799.770935,453.852875 
	C812.302002,453.449982 822.169128,445.334625 823.741943,432.112396 
	C824.986267,421.651428 825.205566,410.826691 824.017944,400.375122 
	C822.252380,384.837982 814.880005,378.495422 798.512512,376.459198 
z"/>
<path fill="#27435A" opacity="1.000000" stroke="none" 
	d="
M706.505188,384.561279 
	C713.747986,404.014160 713.901855,423.465607 707.740784,442.638367 
	C702.897217,457.711395 687.962280,467.024139 671.246765,467.146393 
	C653.037598,467.279572 638.665283,458.685638 633.083923,442.961792 
	C626.720703,425.035309 626.674561,406.534332 632.685974,388.568634 
	C638.114868,372.343750 650.712952,364.240784 667.499084,363.231354 
	C684.572388,362.204651 697.944397,368.793121 706.505188,384.561279 
M666.245056,453.500885 
	C681.033020,455.224823 691.683655,448.180054 695.071289,433.745697 
	C697.877808,421.786957 697.801147,409.587738 695.328552,397.587952 
	C692.527527,383.994293 683.191528,376.459442 670.196106,376.457153 
	C657.408203,376.454895 647.010864,384.704742 645.349670,398.412933 
	C644.024963,409.344543 644.092102,420.666199 645.289185,431.623749 
	C646.664062,444.207367 653.881592,450.897369 666.245056,453.500885 
z"/>
<path fill="#28435A" opacity="1.000000" stroke="none" 
	d="
M951.583862,453.717896 
	C962.650513,454.740143 971.101074,450.503418 978.082764,442.120758 
	C981.611206,445.467407 984.814270,448.505432 988.354553,451.863312 
	C980.936523,460.872559 971.838989,466.216370 960.282776,466.999725 
	C931.194214,468.971558 912.310852,452.337372 910.127625,422.686432 
	C909.150818,409.420776 910.207886,396.446899 916.814880,384.442413 
	C931.021423,358.630066 969.316284,355.198059 988.254517,378.426575 
	C985.081787,381.449524 981.883118,384.497253 978.429993,387.787384 
	C977.077698,386.536652 975.903076,385.418945 974.695496,384.338043 
	C957.576782,369.015137 932.441956,376.488312 926.708862,398.768829 
	C923.973206,409.400482 924.022644,420.284637 926.534668,430.923126 
	C929.579773,443.819458 937.704041,451.766876 951.583862,453.717896 
z"/>
<path fill="#28435B" opacity="1.000000" stroke="none" 
	d="
M723.184937,352.010315 
	C723.420532,347.206085 723.253296,342.829132 723.969177,338.601715 
	C725.903442,327.179413 734.143250,319.779846 745.787354,318.874084 
	C750.224243,318.528992 754.710449,318.817963 759.493408,318.817963 
	C759.493408,322.829559 759.493408,326.740906 759.493408,331.189697 
	C756.551514,331.346985 753.458984,331.394318 750.392090,331.699585 
	C742.778931,332.457458 739.059387,335.619049 738.436218,343.211304 
	C737.856506,350.273376 738.312439,357.420410 738.312439,364.996338 
	C745.529236,364.996338 752.440613,364.996338 759.577698,364.996338 
	C759.577698,368.898132 759.577698,372.336426 759.577698,376.328094 
	C752.648560,376.328094 745.731812,376.328094 738.308838,376.328094 
	C738.308838,406.410583 738.308838,435.949280 738.308838,465.748322 
	C733.074829,465.748322 728.354431,465.748322 723.123169,465.748322 
	C723.123169,435.952148 723.123169,406.404175 723.123169,376.460938 
	C718.677673,376.460938 714.737122,376.460938 710.487427,376.460938 
	C710.487427,372.659851 710.487427,369.242950 710.487427,365.276367 
	C714.397888,365.276367 718.448608,365.276367 723.184937,365.276367 
	C723.184937,360.675995 723.184937,356.590881 723.184937,352.010315 
z"/>
<path fill="#28435B" opacity="1.000000" stroke="none" 
	d="
M849.527344,404.999756 
	C849.527466,391.221741 849.527466,377.943787 849.527466,364.423889 
	C854.780701,364.423889 859.516418,364.423889 864.675049,364.423889 
	C864.675049,367.892853 864.675049,371.143707 864.675049,375.645233 
	C872.198547,367.340302 880.822937,363.682770 890.740112,363.147247 
	C900.755920,362.606415 909.850464,364.882965 917.422180,372.703796 
	C913.435425,376.118896 909.548035,379.448792 905.441345,382.966614 
	C901.276062,378.769012 895.230835,376.089752 887.983826,376.506683 
	C874.383789,377.289185 864.934509,387.615112 864.845642,402.170044 
	C864.726807,421.642822 864.815796,441.116852 864.815552,460.590363 
	C864.815491,462.216827 864.815552,463.843323 864.815552,465.738708 
	C859.651245,465.738708 854.892090,465.738708 849.527161,465.738708 
	C849.527161,445.669220 849.527161,425.584473 849.527344,404.999756 
z"/>
<path fill="#FDFDFD" opacity="1.000000" stroke="none" 
	d="
M356.188782,412.039062 
	C355.775574,419.324585 355.853363,426.191925 354.844177,432.895599 
	C352.893585,445.852264 344.632050,453.341278 332.674622,453.849976 
	C319.448669,454.412628 310.939301,448.365356 307.759003,435.050385 
	C304.596466,421.809753 304.590973,408.320953 307.813232,395.068115 
	C310.907928,382.339935 319.646423,375.903625 331.904724,376.474609 
	C344.558197,377.064026 352.647858,384.205841 354.862396,397.168396 
	C355.670532,401.898682 355.767303,406.750549 356.188782,412.039062 
z"/>
<path fill="#FBFBFC" opacity="1.000000" stroke="none" 
	d="
M1003.927856,396.146851 
	C1009.157532,374.476959 1034.151367,370.547638 1047.004028,382.738220 
	C1054.056396,389.427368 1055.385498,398.147156 1055.836304,407.566650 
	C1037.995361,407.566650 1020.481201,407.566650 1002.384583,407.566650 
	C1002.897583,403.700226 1003.371521,400.127777 1003.927856,396.146851 
z"/>
<path fill="#FDFDFD" opacity="1.000000" stroke="none" 
	d="
M416.758728,377.165588 
	C433.964996,374.062225 447.977631,383.382660 448.898682,403.707336 
	C449.339752,413.440186 449.217804,423.357208 447.841034,432.974640 
	C446.020416,445.692352 436.431061,453.428833 424.199707,453.855957 
	C411.583557,454.296539 401.823029,447.312164 398.622772,434.650055 
	C395.360046,421.740875 395.550568,408.622833 398.566101,395.654022 
	C400.789124,386.093384 406.921936,380.019562 416.758728,377.165588 
z"/>
<path fill="#FDFDFD" opacity="1.000000" stroke="none" 
	d="
M798.977844,376.460571 
	C814.880005,378.495422 822.252380,384.837982 824.017944,400.375122 
	C825.205566,410.826691 824.986267,421.651428 823.741943,432.112396 
	C822.169128,445.334625 812.302002,453.449982 799.770935,453.852875 
	C786.856079,454.268097 777.168640,446.852936 773.986267,433.600830 
	C771.192505,421.967316 771.194641,410.115295 773.581848,398.463867 
	C776.550293,383.975708 783.613342,378.103546 798.977844,376.460571 
z"/>
<path fill="#FDFDFD" opacity="1.000000" stroke="none" 
	d="
M665.834656,453.409851 
	C653.881592,450.897369 646.664062,444.207367 645.289185,431.623749 
	C644.092102,420.666199 644.024963,409.344543 645.349670,398.412933 
	C647.010864,384.704742 657.408203,376.454895 670.196106,376.457153 
	C683.191528,376.459442 692.527527,383.994293 695.328552,397.587952 
	C697.801147,409.587738 697.877808,421.786957 695.071289,433.745697 
	C691.683655,448.180054 681.033020,455.224823 665.834656,453.409851 
z"/>
</svg>